<mxfile host="app.diagrams.net" modified="2024-03-05T06:28:02.631Z" agent="Mozilla/5.0 (Windows NT 10.0; Win64; x64) AppleWebKit/537.36 (KHTML, like Gecko) Chrome/120.0.0.0 YaBrowser/24.1.0.0 Safari/537.36" etag="mRgZRTFrP9RQfBtTRN74" version="24.0.1" type="device">
  <diagram name="Страница — 1" id="Cdiym0J_ZGELdwLNhnMa">
    <mxGraphModel dx="1000" dy="585" grid="1" gridSize="10" guides="1" tooltips="1" connect="1" arrows="1" fold="1" page="1" pageScale="1" pageWidth="827" pageHeight="1169" math="0" shadow="0">
      <root>
        <mxCell id="0" />
        <mxCell id="1" parent="0" />
        <mxCell id="2x85QK4zKmhE35TuxkyJ-1" value="" style="ellipse;whiteSpace=wrap;html=1;aspect=fixed;" parent="1" vertex="1">
          <mxGeometry x="150" y="140" width="80" height="80" as="geometry" />
        </mxCell>
        <mxCell id="2x85QK4zKmhE35TuxkyJ-3" value="" style="shape=waypoint;sketch=0;fillStyle=solid;size=6;pointerEvents=1;points=[];fillColor=none;resizable=0;rotatable=0;perimeter=centerPerimeter;snapToPoint=1;" parent="1" vertex="1">
          <mxGeometry x="80" y="240" width="20" height="20" as="geometry" />
        </mxCell>
        <mxCell id="2x85QK4zKmhE35TuxkyJ-4" value="" style="endArrow=classic;html=1;rounded=0;entryX=0.04;entryY=0.727;entryDx=0;entryDy=0;entryPerimeter=0;curved=1;" parent="1" target="2x85QK4zKmhE35TuxkyJ-1" edge="1">
          <mxGeometry width="50" height="50" relative="1" as="geometry">
            <mxPoint x="90" y="250" as="sourcePoint" />
            <mxPoint x="140" y="200" as="targetPoint" />
            <Array as="points">
              <mxPoint x="100" y="220" />
            </Array>
          </mxGeometry>
        </mxCell>
        <mxCell id="2x85QK4zKmhE35TuxkyJ-6" value="Turn On" style="text;html=1;align=center;verticalAlign=middle;whiteSpace=wrap;rounded=0;" parent="1" vertex="1">
          <mxGeometry x="70" y="180" width="60" height="30" as="geometry" />
        </mxCell>
        <mxCell id="2x85QK4zKmhE35TuxkyJ-7" value="Enable" style="text;html=1;align=center;verticalAlign=middle;whiteSpace=wrap;rounded=0;" parent="1" vertex="1">
          <mxGeometry x="160" y="165" width="60" height="30" as="geometry" />
        </mxCell>
        <mxCell id="_h2JUg-FT-BvtMjLGwgG-1" value="Enable" style="text;html=1;align=center;verticalAlign=middle;whiteSpace=wrap;rounded=0;" parent="1" vertex="1">
          <mxGeometry x="160" y="165" width="60" height="30" as="geometry" />
        </mxCell>
        <mxCell id="2x85QK4zKmhE35TuxkyJ-8" value="" style="ellipse;whiteSpace=wrap;html=1;aspect=fixed;" parent="1" vertex="1">
          <mxGeometry x="290" y="100" width="80" height="80" as="geometry" />
        </mxCell>
        <mxCell id="2x85QK4zKmhE35TuxkyJ-9" value="" style="endArrow=classic;html=1;rounded=0;entryX=-0.02;entryY=0.418;entryDx=0;entryDy=0;entryPerimeter=0;curved=1;" parent="1" target="2x85QK4zKmhE35TuxkyJ-8" edge="1">
          <mxGeometry width="50" height="50" relative="1" as="geometry">
            <mxPoint x="230" y="180" as="sourcePoint" />
            <mxPoint x="280" y="130" as="targetPoint" />
            <Array as="points">
              <mxPoint x="240" y="140" />
            </Array>
          </mxGeometry>
        </mxCell>
        <mxCell id="2x85QK4zKmhE35TuxkyJ-11" value="Playback" style="text;html=1;align=center;verticalAlign=middle;whiteSpace=wrap;rounded=0;" parent="1" vertex="1">
          <mxGeometry x="300" y="125" width="60" height="30" as="geometry" />
        </mxCell>
        <mxCell id="2x85QK4zKmhE35TuxkyJ-12" value="Play" style="text;html=1;align=center;verticalAlign=middle;whiteSpace=wrap;rounded=0;" parent="1" vertex="1">
          <mxGeometry x="220" y="110" width="60" height="30" as="geometry" />
        </mxCell>
        <mxCell id="2x85QK4zKmhE35TuxkyJ-13" value="" style="ellipse;whiteSpace=wrap;html=1;aspect=fixed;" parent="1" vertex="1">
          <mxGeometry x="400" y="50" width="80" height="80" as="geometry" />
        </mxCell>
        <mxCell id="2x85QK4zKmhE35TuxkyJ-14" value="" style="endArrow=classic;html=1;rounded=0;entryX=0;entryY=0.5;entryDx=0;entryDy=0;curved=1;" parent="1" target="2x85QK4zKmhE35TuxkyJ-13" edge="1">
          <mxGeometry width="50" height="50" relative="1" as="geometry">
            <mxPoint x="364" y="125" as="sourcePoint" />
            <mxPoint x="414" y="75" as="targetPoint" />
            <Array as="points">
              <mxPoint x="370" y="100" />
            </Array>
          </mxGeometry>
        </mxCell>
        <mxCell id="2x85QK4zKmhE35TuxkyJ-15" value="Paused" style="text;html=1;align=center;verticalAlign=middle;whiteSpace=wrap;rounded=0;" parent="1" vertex="1">
          <mxGeometry x="410" y="75" width="60" height="30" as="geometry" />
        </mxCell>
        <mxCell id="2x85QK4zKmhE35TuxkyJ-16" value="Pause" style="text;html=1;align=center;verticalAlign=middle;whiteSpace=wrap;rounded=0;" parent="1" vertex="1">
          <mxGeometry x="340" y="60" width="60" height="30" as="geometry" />
        </mxCell>
        <mxCell id="2x85QK4zKmhE35TuxkyJ-19" value="Disable" style="ellipse;whiteSpace=wrap;html=1;aspect=fixed;" parent="1" vertex="1">
          <mxGeometry x="510" y="170" width="80" height="80" as="geometry" />
        </mxCell>
        <mxCell id="2x85QK4zKmhE35TuxkyJ-20" value="" style="endArrow=classic;html=1;rounded=0;exitX=0.573;exitY=1;exitDx=0;exitDy=0;exitPerimeter=0;curved=1;" parent="1" source="2x85QK4zKmhE35TuxkyJ-1" edge="1">
          <mxGeometry width="50" height="50" relative="1" as="geometry">
            <mxPoint x="490" y="300" as="sourcePoint" />
            <mxPoint x="540" y="250" as="targetPoint" />
            <Array as="points">
              <mxPoint x="370" y="390" />
            </Array>
          </mxGeometry>
        </mxCell>
        <mxCell id="2x85QK4zKmhE35TuxkyJ-21" value="Turn Off" style="text;html=1;align=center;verticalAlign=middle;whiteSpace=wrap;rounded=0;" parent="1" vertex="1">
          <mxGeometry x="360" y="330" width="60" height="30" as="geometry" />
        </mxCell>
        <mxCell id="2x85QK4zKmhE35TuxkyJ-29" value="Turn Off" style="text;html=1;align=center;verticalAlign=middle;whiteSpace=wrap;rounded=0;" parent="1" vertex="1">
          <mxGeometry x="540" y="95" width="60" height="30" as="geometry" />
        </mxCell>
        <mxCell id="2x85QK4zKmhE35TuxkyJ-30" value="Turn Off" style="text;html=1;align=center;verticalAlign=middle;whiteSpace=wrap;rounded=0;" parent="1" vertex="1">
          <mxGeometry x="410" y="210" width="60" height="30" as="geometry" />
        </mxCell>
        <mxCell id="2x85QK4zKmhE35TuxkyJ-31" value="" style="endArrow=classic;html=1;rounded=0;entryX=-0.02;entryY=0.363;entryDx=0;entryDy=0;entryPerimeter=0;curved=1;" parent="1" target="2x85QK4zKmhE35TuxkyJ-19" edge="1">
          <mxGeometry width="50" height="50" relative="1" as="geometry">
            <mxPoint x="364" y="165" as="sourcePoint" />
            <mxPoint x="414" y="115" as="targetPoint" />
            <Array as="points">
              <mxPoint x="440" y="170" />
            </Array>
          </mxGeometry>
        </mxCell>
        <mxCell id="2x85QK4zKmhE35TuxkyJ-32" value="" style="endArrow=classic;html=1;rounded=0;entryX=0.5;entryY=0;entryDx=0;entryDy=0;curved=1;" parent="1" target="2x85QK4zKmhE35TuxkyJ-19" edge="1">
          <mxGeometry width="50" height="50" relative="1" as="geometry">
            <mxPoint x="480" y="90" as="sourcePoint" />
            <mxPoint x="530" y="40" as="targetPoint" />
            <Array as="points">
              <mxPoint x="540" y="100" />
            </Array>
          </mxGeometry>
        </mxCell>
        <mxCell id="R4NKjGZMGFkhVQLBgVOH-1" value="" style="endArrow=classic;html=1;rounded=0;entryX=0.25;entryY=1;entryDx=0;entryDy=0;entryPerimeter=0;curved=1;" edge="1" parent="1" target="2x85QK4zKmhE35TuxkyJ-1">
          <mxGeometry width="50" height="50" relative="1" as="geometry">
            <mxPoint x="560" y="250" as="sourcePoint" />
            <mxPoint x="610" y="200" as="targetPoint" />
            <Array as="points">
              <mxPoint x="380" y="610" />
            </Array>
          </mxGeometry>
        </mxCell>
        <mxCell id="R4NKjGZMGFkhVQLBgVOH-2" value="Turn On" style="text;html=1;align=center;verticalAlign=middle;whiteSpace=wrap;rounded=0;" vertex="1" parent="1">
          <mxGeometry x="350" y="450" width="60" height="30" as="geometry" />
        </mxCell>
        <mxCell id="R4NKjGZMGFkhVQLBgVOH-3" value="Break" style="ellipse;whiteSpace=wrap;html=1;aspect=fixed;" vertex="1" parent="1">
          <mxGeometry x="180" y="410" width="80" height="80" as="geometry" />
        </mxCell>
        <mxCell id="R4NKjGZMGFkhVQLBgVOH-4" value="Superscript" style="endArrow=classic;html=1;rounded=0;entryX=0.621;entryY=-0.054;entryDx=0;entryDy=0;entryPerimeter=0;" edge="1" parent="1" target="R4NKjGZMGFkhVQLBgVOH-3">
          <mxGeometry width="50" height="50" relative="1" as="geometry">
            <mxPoint x="220" y="210" as="sourcePoint" />
            <mxPoint x="270" y="160" as="targetPoint" />
            <Array as="points">
              <mxPoint x="250" y="340" />
            </Array>
          </mxGeometry>
        </mxCell>
        <mxCell id="R4NKjGZMGFkhVQLBgVOH-6" value="Superscript" style="endArrow=classic;html=1;rounded=0;entryX=0.621;entryY=-0.054;entryDx=0;entryDy=0;entryPerimeter=0;" edge="1" parent="1" source="2x85QK4zKmhE35TuxkyJ-19">
          <mxGeometry width="50" height="50" relative="1" as="geometry">
            <mxPoint x="230" y="220" as="sourcePoint" />
            <mxPoint x="240" y="416" as="targetPoint" />
            <Array as="points">
              <mxPoint x="310" y="290" />
              <mxPoint x="260" y="350" />
            </Array>
          </mxGeometry>
        </mxCell>
        <mxCell id="R4NKjGZMGFkhVQLBgVOH-7" value="Superscript" style="endArrow=classic;html=1;rounded=0;" edge="1" parent="1" target="R4NKjGZMGFkhVQLBgVOH-3">
          <mxGeometry width="50" height="50" relative="1" as="geometry">
            <mxPoint x="310" y="180" as="sourcePoint" />
            <mxPoint x="320" y="376" as="targetPoint" />
            <Array as="points">
              <mxPoint x="290" y="340" />
            </Array>
          </mxGeometry>
        </mxCell>
        <mxCell id="R4NKjGZMGFkhVQLBgVOH-8" value="Superscript" style="endArrow=classic;html=1;rounded=0;entryX=0.621;entryY=-0.054;entryDx=0;entryDy=0;entryPerimeter=0;exitX=0.414;exitY=1.065;exitDx=0;exitDy=0;exitPerimeter=0;" edge="1" parent="1" source="2x85QK4zKmhE35TuxkyJ-13">
          <mxGeometry width="50" height="50" relative="1" as="geometry">
            <mxPoint x="522" y="233" as="sourcePoint" />
            <mxPoint x="250" y="426" as="targetPoint" />
            <Array as="points">
              <mxPoint x="320" y="300" />
              <mxPoint x="270" y="360" />
            </Array>
          </mxGeometry>
        </mxCell>
        <mxCell id="R4NKjGZMGFkhVQLBgVOH-10" value="higher voltage" style="text;html=1;align=center;verticalAlign=middle;resizable=0;points=[];autosize=1;strokeColor=none;fillColor=none;" vertex="1" parent="1">
          <mxGeometry x="150" y="360" width="100" height="30" as="geometry" />
        </mxCell>
      </root>
    </mxGraphModel>
  </diagram>
</mxfile>
